<?xml version="1.0" standalone="no"?>
<!DOCTYPE svg PUBLIC "-//W3C//DTD SVG 20010904//EN"
 "http://www.w3.org/TR/2001/REC-SVG-20010904/DTD/svg10.dtd">
<svg version="1.0" xmlns="http://www.w3.org/2000/svg"
 width="512.000000pt" height="512.000000pt" viewBox="0 0 512.000000 512.000000"
 preserveAspectRatio="xMidYMid meet">
<metadata>
Created by potrace 1.11, written by Peter Selinger 2001-2013
</metadata>
<g transform="translate(0.000000,512.000000) scale(0.100000,-0.100000)"
fill="#000000" stroke="none">
<path d="M0 2560 l0 -2560 2560 0 2560 0 0 2560 0 2560 -2560 0 -2560 0 0
-2560z m1425 1337 c266 -455 686 -1172 908 -1552 115 -198 215 -368 222 -378
11 -16 27 8 133 190 176 305 302 522 552 953 123 212 269 464 325 560 55 96
143 248 195 338 l95 162 185 -2 185 -3 3 -1607 2 -1608 -225 0 -225 0 0 1132
c0 724 -3 1129 -10 1122 -5 -5 -210 -353 -456 -774 -245 -421 -489 -838 -541
-927 l-95 -163 -118 0 -118 0 -39 68 c-41 68 -932 1583 -1014 1722 l-44 75 -3
-1127 -2 -1128 -225 0 -225 0 0 1610 0 1610 188 0 187 0 160 -273z"/>
</g>
</svg>
